<svg id="Capa_1" data-name="Capa 1" xmlns="http://www.w3.org/2000/svg" viewBox="0 0 1297.55 222.6"><defs><style>.cls-1{fill:#fff;}.cls-2{fill:#a7dde2;}.cls-10,.cls-2,.cls-3,.cls-4,.cls-5,.cls-6,.cls-7,.cls-8,.cls-9{fill-rule:evenodd;}.cls-3{fill:#7fc55d;}.cls-4{fill:#838383;}.cls-5{fill:#acacac;}.cls-6{fill:#ececec;}.cls-7{fill:#cecece;}.cls-8{fill:#595959;}.cls-9{fill:#4dac2b;}.cls-10{fill:#6ac6db;}</style></defs><title>logo-viajes</title><path class="cls-1" d="M388.78,49.5,333.64,175.22H315.86L260.54,49.5h19.4L325.2,152.77,370.82,49.5Z"/><path class="cls-1" d="M399.37,50.58a11.36,11.36,0,0,1,11.68-11.32c6.64,0,11.67,4.85,11.67,11a11.28,11.28,0,0,1-11.67,11.49C404.4,61.71,399.37,56.86,399.37,50.58ZM402.42,80h17.25v95.19H402.42Z"/><path class="cls-1" d="M528,117.75v57.47H511.62V162.65c-5.74,8.62-16.34,13.65-31.25,13.65-21.55,0-35.2-11.49-35.2-28,0-15.26,9.88-27.84,38.25-27.84h27.3V117c0-14.55-8.44-23-25.5-23-11.31,0-22.81,3.95-30.17,10.24l-7.19-12.93c9.88-7.91,24.07-12.22,39.34-12.22C513.24,79.13,528,91.71,528,117.75Zm-17.25,28.38V132.84H484.14c-17.06,0-21.91,6.64-21.91,14.72,0,9.52,7.9,15.45,21,15.45C496.18,163,506.41,157.08,510.72,146.13Z"/><path class="cls-1" d="M527.06,205.4l5.57-13.29c3.41,2.87,8.44,4.49,14,4.49,9.16,0,14.19-5.75,14.19-16.71V80h17.24v99.5c0,19.4-10.77,31.62-30.35,31.62C539.82,211.15,531.91,209.35,527.06,205.4ZM557.78,50.58a11.35,11.35,0,0,1,11.67-11.32c6.65,0,11.68,4.85,11.68,11a11.28,11.28,0,0,1-11.68,11.49C562.8,61.71,557.78,56.86,557.78,50.58Z"/><path class="cls-1" d="M696.61,133.38H619.38c2.15,16.7,15.62,27.83,34.48,27.83,11.14,0,20.48-3.77,27.48-11.49l9.52,11.14c-8.62,10-21.73,15.44-37.53,15.44-30.72,0-51.19-20.29-51.19-48.67,0-28.2,20.29-48.5,47.77-48.5S697,98.89,697,128.17C697,129.6,696.79,131.76,696.61,133.38ZM619.38,121h61.07c-1.8-16-13.83-27.3-30.54-27.3C633.39,93.68,621.17,104.82,619.38,121Z"/><path class="cls-1" d="M708.82,165.17,716,151.52c8.09,5.74,21,9.87,33.41,9.87,16,0,22.63-4.85,22.63-12.93,0-21.37-60.17-2.87-60.17-40.77,0-17.06,15.27-28.56,39.7-28.56,12.39,0,26.4,3.24,34.66,8.62l-7.36,13.66c-8.62-5.57-18.14-7.55-27.48-7.55-15.09,0-22.45,5.57-22.45,13.11,0,22.45,60.34,4.13,60.34,41.13,0,17.25-15.8,28.2-41.13,28.2C732.35,176.3,716.72,171.45,708.82,165.17Z"/><path class="cls-1" d="M851.42,112.36c0-37.18,28.38-64.3,66.63-64.3,19.4,0,36.28,6.65,47.78,19.58L954.16,79c-9.7-10.23-21.56-14.9-35.39-14.9-28.38,0-49.39,20.47-49.39,48.31s21,48.32,49.39,48.32c13.83,0,25.69-4.85,35.39-15.09l11.67,11.31c-11.5,12.93-28.38,19.76-48,19.76C879.8,176.66,851.42,149.54,851.42,112.36Z"/><path class="cls-1" d="M1079.33,120.44v54.78h-17.24v-52.8c0-18.68-9.34-27.84-25.68-27.84-18.32,0-30.18,11-30.18,31.61v49H989V42h17.24V93.5c7.19-9.16,19-14.37,33.59-14.37C1063,79.13,1079.33,92.42,1079.33,120.44Z"/><path class="cls-1" d="M1108.25,50.58a11.35,11.35,0,0,1,11.67-11.32c6.65,0,11.67,4.85,11.67,11a11.28,11.28,0,0,1-11.67,11.49C1113.28,61.71,1108.25,56.86,1108.25,50.58Zm3,29.45h17.24v95.19H1111.3Z"/><path class="cls-1" d="M1161.41,42h17.24V175.22h-17.24Z"/><path class="cls-1" d="M1297.19,133.38H1220c2.15,16.7,15.62,27.83,34.48,27.83,11.14,0,20.48-3.77,27.48-11.49l9.52,11.14c-8.62,10-21.73,15.44-37.54,15.44-30.71,0-51.19-20.29-51.19-48.67,0-28.2,20.3-48.5,47.78-48.5s47.06,19.76,47.06,49C1297.55,129.6,1297.37,131.76,1297.19,133.38ZM1220,121H1281c-1.79-16-13.83-27.3-30.53-27.3C1234,93.68,1221.75,104.82,1220,121Z"/><path class="cls-2" d="M220.39,133.44a92.46,92.46,0,0,1-184.67-6.91L91.51,48.88l42.23-14.46a91.92,91.92,0,0,1,30.87,7.29A93.55,93.55,0,0,1,173.36,46a92.49,92.49,0,0,1,47.25,80.72q0,3.37-.22,6.68Z"/><path class="cls-3" d="M173.36,46a92.49,92.49,0,0,1,47.25,80.72q0,3.37-.22,6.68c-2.11,14.09-26.48,12.74-27.76.46-1.19-11.31-11.62-11.6-16.41-12.07-11.81-1.2-17.17-9.65-2.09-29.47,12.57-16.51-33.5-33.27-9.52-50.65A93.55,93.55,0,0,1,173.36,46Z"/><path class="cls-4" d="M136.45,66.49l5.79,5.14a7.22,7.22,0,0,1,.6,10.15L128.58,97.84l-10.89-8L118.38,76l7.94-8.93a7.17,7.17,0,0,1,10.13-.6Z"/><path class="cls-5" d="M118.38,76l10.2,21.82L133,107.4c3.31,7.08.92,14.24-1.72,17.21l-5.15,5.79c-3.88,4.39-7.1,3.07-10.23-1.66l-30-44.45,4.22-20,21.31-3.11Z"/><path class="cls-5" d="M63.56,104.57l11,22.24a12.77,12.77,0,0,1-1.34,13.45l-2.83,3.17c-3,3.43-5.55,2.42-8-1.3L44.83,121.55l4.17-12Z"/><path class="cls-5" d="M21,79.12l23,8.1L43.9,103l-14.38,4.6L7.21,93c-4-2-5.27-4.38-2.22-7.79L7.81,82A12.79,12.79,0,0,1,21,79.12Z"/><path class="cls-3" d="M154.19,175c8.23-13.69,33.58-16.81,51.36,2.38A92.27,92.27,0,0,1,74.33,201.91C73.49,176.55,94,170,110.45,183.62c7.11,5.86,33.37,8.69,43.74-8.6Z"/><path class="cls-4" d="M62.7,3.31a7.08,7.08,0,0,1,4.75,1.8l5.79,5.15a7.21,7.21,0,0,1,.6,10.15l-7.93,8.93H49l-5.94-7.57L57.32,5.71a7.14,7.14,0,0,1,5.36-2.4Z"/><path class="cls-5" d="M43.06,21.77l22.85,7.57,15.56,5.15L78.72,54.61l-17.21,8L13.88,38C8.81,35.4,7.13,32.37,11,28l5.15-5.79c2.63-3,9.46-6.18,16.86-3.73Z"/><path class="cls-6" d="M108.84,7.88c7.65-2.27,17.78-3.78,22.6.55s4.55,14.51,3.19,22.39a25.52,25.52,0,0,1-.89,3.6C132,40,128.16,46,121.71,51.84l-10.27,9.31L85.91,84.29,44.79,121.51l-1.74,1.65a13.72,13.72,0,0,1-7.33,3.36c-7.8.8-13.23-7.63-7.74-16.76l1.54-2.17,32-45,20-28.1,8-11.3c6.18-8.65,12.95-13.41,19.33-15.31Z"/><path class="cls-7" d="M102.9,52.69,77.37,75.83,36.25,113.05l-1.74,1.65a13.76,13.76,0,0,1-7.33,3.36,9.37,9.37,0,0,1-1.39,0,8.9,8.9,0,0,0,9.93,8.41,13.72,13.72,0,0,0,7.33-3.36l1.75-1.65L85.91,84.29l25.53-23.14,10.27-9.31C128.16,46,132,40,133.74,34.42a25.52,25.52,0,0,0,.89-3.6c1.36-7.88,1.68-18.11-3.19-22.39A10.77,10.77,0,0,0,126.21,6c1.21,4.87.77,11.11-.13,16.34A24,24,0,0,1,125.2,26c-1.77,5.57-5.58,11.53-12,17.42Z"/><path class="cls-4" d="M122.2,123.08l-30-44.45-6.25,5.66,30,44.45c3.13,4.73,6.35,6,10.23,1.66l2.81-3.16c-2.43.75-4.63-.89-6.78-4.16Z"/><path class="cls-8" d="M137.72,77.22l-12.3,13.86,3.16,6.76,14.26-16.06a7.22,7.22,0,0,0-.6-10.15l-5.09-4.53h0a7.21,7.21,0,0,1,.57,10.11Z"/><path class="cls-8" d="M58.68,26.9l7.23,2.44,7.93-8.93a7.21,7.21,0,0,0-.6-10.15l-4-3.54c2.93,2.64,1.81,6.69-.87,9.61Z"/><path class="cls-4" d="M66.08,56.14,18.46,31.5c-3.55-1.77-5.43-3.8-4.91-6.36L11,28c-3.9,4.39-2.22,7.42,2.85,10L61.51,62.59Z"/><path class="cls-4" d="M67.81,137.27,50.19,116.69l-5.36,4.86,17.62,20.58c2.44,3.72,5,4.73,8,1.3L73,140.57c-1.85.49-3.53-.8-5.18-3.3Z"/><path class="cls-4" d="M33.73,101.67,11.43,87.08c-2.67-1.35-4.13-2.86-3.87-4.76L5,85.22C1.94,88.63,3.25,91,7.21,93l22.31,14.58Z"/><path class="cls-9" d="M220.61,126.76A92.49,92.49,0,0,0,173.36,46c-1.51-.85-3.06-1.66-4.63-2.44,15.12,20,24.48,47.79,24.48,78.49,0,4.18-.17,8.31-.51,12.36,1.94,11.77,25.61,12.87,27.69-1q.23-3.3.22-6.68Z"/><path class="cls-10" d="M220.39,133.44c-2.08,13.88-25.75,12.78-27.69,1a139.76,139.76,0,0,1-6.07,30.89,42,42,0,0,1,18.92,12.06A91.94,91.94,0,0,0,220.39,133.44Z"/><path class="cls-9" d="M186.63,165.34c-6.58,20.67-17.74,38.11-31.76,50a92.65,92.65,0,0,0,50.68-38,42,42,0,0,0-18.92-12.06Z"/><path d="M223.92,126.76A96,96,0,0,0,175,43.16a94.5,94.5,0,0,0-37.11-11.72s0,0,0-.06c1.49-8.59,2-20-4.23-25.4-6.48-5.84-18.91-3.3-25.75-1.27-7.68,2.29-15,8-21.08,16.57L80.2,30.59l-8.48-2.81,4.59-5.18a10.52,10.52,0,0,0-.87-14.81l-5.8-5.15A10.34,10.34,0,0,0,62.06,0a10.45,10.45,0,0,0-7.21,3.49L42,18l-8-2.63C24.87,12.27,16.85,16.45,13.7,20L8.56,25.79c-2.39,2.69-3.35,5.37-2.86,8,.54,2.82,2.73,5.16,6.66,7.14L56.61,63.77,42.75,83.28,22.08,76A16,16,0,0,0,5.33,79.84L2.52,83c-2,2.27-2.84,4.57-2.41,6.83.67,3.48,4.09,5.34,5.45,6l19.33,12.64c-4.46,7.81-2.3,14.89,1.9,18.49a12.14,12.14,0,0,0,5.68,2.69,95.5,95.5,0,0,0,7,33.05,3.32,3.32,0,0,0,3.07,2.06,3.23,3.23,0,0,0,1.24-.25,3.3,3.3,0,0,0,1.82-4.3,88.81,88.81,0,0,1-6.53-31.05,18.28,18.28,0,0,0,5.42-3l15.32,17.89c.84,1.28,3.07,4.43,6.6,4.69l.46,0c2.13,0,4.16-1.08,6-3.21l2.83-3.18a16,16,0,0,0,1.83-17.11l-9.94-20,17.68-16,10.78,16a3.29,3.29,0,0,0,2.74,1.46,3.25,3.25,0,0,0,1.85-.57,3.3,3.3,0,0,0,.88-4.59L90.26,84.82l20.08-18.21,5,10.75a.91.91,0,0,0,.07.14l14.62,31.3c2.84,6.08.42,11.8-1.2,13.62l-5.15,5.79c-1.13,1.27-1.87,1.6-2.14,1.56s-1.41-.66-2.88-2.88l-9.11-13.49a3.31,3.31,0,1,0-5.48,3.7l9.1,13.46c2.44,3.7,5,5.6,7.9,5.81h.51c2.45,0,4.82-1.27,7-3.78l5.15-5.79c3.15-3.55,6.36-12,2.24-20.81l-3.54-7.58L145.32,84a10.53,10.53,0,0,0-.88-14.81L138.65,64a10.48,10.48,0,0,0-14.8.87l-4.6,5.18L115.47,62l8.46-7.67h0a46.66,46.66,0,0,0,12-16.39,87.89,87.89,0,0,1,22.43,4.92,14.86,14.86,0,0,0-4,8.28c-.93,7.58,4.72,14.29,10.18,20.77,7.51,8.92,10.64,13.65,6.95,18.49-8.67,11.41-11.67,20.42-8.9,26.81,1.37,3.15,4.79,7.09,13.29,8l.88.08c6.18.56,11.8,1.67,12.57,9S197,146.66,206,146.86h.48a20.57,20.57,0,0,0,8.94-2,88.55,88.55,0,0,1-10.55,27.21c-9.22-8.41-20.68-12.52-32-11.35-9.48,1-17.33,5.56-21.54,12.56-4.43,7.37-11.9,10-17.39,11-9.44,1.62-18.5-.84-21.41-3.24-9.24-7.63-20.26-9.78-28.77-5.6-7,3.43-11.36,10.53-12.5,19.93a90,90,0,0,1-18-20.39,3.31,3.31,0,0,0-5.56,3.59,95.7,95.7,0,0,0,175.93-44.67h0a3.27,3.27,0,0,0,0-.54q.23-3.3.23-6.63ZM128.8,69.28a3.86,3.86,0,0,1,5.45-.32L140,74.1a3.9,3.9,0,0,1,.33,5.49l-10.93,12.3-7.14-15.3ZM59.79,7.9a3.86,3.86,0,0,1,2.67-1.28,3.8,3.8,0,0,1,2.79,1l5.8,5.15a3.92,3.92,0,0,1,.32,5.48l-6.48,7.31-16-5.31ZM15.36,35c-2.89-1.45-3.15-2.4-3.16-2.5,0-.26.16-1,1.3-2.32l5.15-5.8c1.61-1.81,7-4.89,13.36-2.79L64.74,32.43l.17.06,11.28,3.74L60.48,58.33ZM8.69,90.05a6,6,0,0,1-2.06-1.43,4.07,4.07,0,0,1,.83-1.21l2.82-3.18a9.56,9.56,0,0,1,9.61-2l18.88,6.64-10.1,14.2L9,90.24l-.33-.19Zm63,38.23a9.52,9.52,0,0,1-.86,9.78L68,141.24a4,4,0,0,1-1.1,1,5.58,5.58,0,0,1-1.65-1.88A2.91,2.91,0,0,0,65,140L49.43,121.84,62.55,110ZM119.49,49.4,109.3,58.63l-.16.15L40.88,120.66a10.69,10.69,0,0,1-5.43,2.57h-.11A5.47,5.47,0,0,1,31.1,122c-2.16-1.85-3.09-5.77-.35-10.41l33.41-47,.08-.11,28-39.34c5.24-7.33,11.32-12.2,17.58-14.06,9.1-2.7,16.56-2.77,19.48-.13s3.73,10,2.11,19.34c-1.1,6.43-5.21,13-11.88,19.14Zm86.68,90.85c-4.76-.1-9.81-2.44-10.26-6.7-1.4-13.38-13.41-14.47-18.54-14.94l-.82-.07c-2.93-.3-6.68-1.24-7.88-4-1.68-3.85,1.27-11.2,8.09-20.16,7.3-9.59-.72-19.11-7.15-26.75-4.55-5.41-9.26-11-8.68-15.71.26-2.16,1.63-4.25,4.15-6.37,2.25,1,4.48,2.16,6.66,3.39a89.41,89.41,0,0,1,45.57,77.84c0,2.17-.09,4.31-.24,6.44-1,5.36-6.44,7.16-10.9,7.05Zm-78,75.74a88.53,88.53,0,0,1-50.56-15.78c.06-9.17,3.33-16,9.09-18.8,6.15-3,14.44-1.2,21.65,4.75,5.29,4.37,16.79,6.37,26.74,4.66,6.85-1.18,16.22-4.58,21.93-14.1,3.08-5.12,9.27-8.63,16.56-9.38,9.75-1,19.71,2.77,27.69,10.42A89.06,89.06,0,0,1,128.17,216Z"/><path d="M108.58,18.39a3.3,3.3,0,1,0,.55,6.58c3.31-.27,7.71,3.77,8.11,7.46a3.31,3.31,0,0,0,3.28,2.94,2.3,2.3,0,0,0,.37,0,3.3,3.3,0,0,0,2.92-3.64c-.8-7.3-8.34-13.91-15.23-13.32Z"/></svg>